<?xml version="1.0" encoding="utf-8"?>
<!-- Generator: Adobe Illustrator 18.1.1, SVG Export Plug-In . SVG Version: 6.00 Build 0)  -->
<svg version="1.1" id="Layer_1" xmlns="http://www.w3.org/2000/svg" xmlns:xlink="http://www.w3.org/1999/xlink" x="0px" y="0px"
	 width="60.7px" height="63.1px" viewBox="-365 275.9 60.7 63.1" enable-background="new -365 275.9 60.7 63.1"
	 xml:space="preserve">
<path fill="#FFFFFF" stroke="#AAC3C8" stroke-miterlimit="10" d="M-316.1,333.6h-37c-4.4,0-8-3.6-8-8v-37c0-4.4,3.6-8,8-8h37
	c4.4,0,8,3.6,8,8v37C-308.1,330-311.8,333.6-316.1,333.6z"/>
<path fill="#BAD7DD" d="M-332,322.1V311c0-0.7-0.2-0.9-0.9-0.9c-1.1,0.1-2.2,0-3.2,0c-0.6,0-0.8-0.2-0.8-0.8v-3
	c0-0.9,0.4-1.2,1.2-1.2h2.5c0.9,0.1,1.2-0.4,1.2-1.2c0-1.5-0.1-3,0.4-4.5c1-3.5,3.3-5.2,7.1-5.4c1.8-0.1,3.5,0,5.3,0
	c0.8,0,1,0.4,1,1.1v3.9c0,0.7-0.3,1.1-1.1,1h-2.5c-0.8,0-1.3,0.3-1.7,1c-0.6,1.2-0.3,2.5-0.3,3.7c0,0.5,0.6,0.4,0.9,0.4h3.8
	c0.6,0,0.8,0.2,0.8,0.8v3.5c0,0.6-0.2,0.7-0.7,0.7c-1.2,0-2.3,0.1-3.5,0c-1.1-0.1-1.4,0.4-1.4,1.5V333c0,0.9-0.2,1.3-1.2,1.2
	c-2-0.1-4-0.1-6,0c-0.8,0-1.1-0.2-1.1-1.1C-332,329.5-332,325.8-332,322.1z"/>
</svg>
