<svg xmlns="http://www.w3.org/2000/svg" width="60.7" height="63.1" viewBox="-365 275.9 60.7 63.1" enable-background="new -365 275.9 60.7 63.1"><path fill="#fff" stroke="#AAC3C8" stroke-miterlimit="10" d="M-316.1 333.6h-37c-4.4 0-8-3.6-8-8v-37c0-4.4 3.6-8 8-8h37c4.4 0 8 3.6 8 8v37c0 4.4-3.7 8-8 8z"/><path fill="#BAD7DD" d="M-332 322.1v-11.1c0-.7-.2-.9-.9-.9-1.1.1-2.2 0-3.2 0-.6 0-.8-.2-.8-.8v-3c0-.9.4-1.2 1.2-1.2h2.5c.9.1 1.2-.4 1.2-1.2 0-1.5-.1-3 .4-4.5 1-3.5 3.3-5.2 7.1-5.4 1.8-.1 3.5 0 5.3 0 .8 0 1 .4 1 1.1v3.9c0 .7-.3 1.1-1.1 1h-2.5c-.8 0-1.3.3-1.7 1-.6 1.2-.3 2.5-.3 3.7 0 .5.6.4.9.4h3.8c.6 0 .8.2.8.8v3.5c0 .6-.2.7-.7.7-1.2 0-2.3.1-3.5 0-1.1-.1-1.4.4-1.4 1.5v21.4c0 .9-.2 1.3-1.2 1.2-2-.1-4-.1-6 0-.8 0-1.1-.2-1.1-1.1.2-3.6.2-7.3.2-11z"/></svg>