<?xml version="1.0" encoding="utf-8"?>
<!-- Generator: Adobe Illustrator 18.1.1, SVG Export Plug-In . SVG Version: 6.00 Build 0)  -->
<svg version="1.1" id="Layer_1" xmlns="http://www.w3.org/2000/svg" xmlns:xlink="http://www.w3.org/1999/xlink" x="0px" y="0px"
	 width="62px" height="60px" viewBox="-364 277 62 60" enable-background="new -364 277 62 60" xml:space="preserve">
<path fill="#FFFFFF" stroke="#AAC3C8" stroke-miterlimit="10" d="M-314.5,332.8h-37c-4.4,0-8-3.6-8-8v-37c0-4.4,3.6-8,8-8h37
	c4.4,0,8,3.6,8,8v37C-306.5,329.2-310.1,332.8-314.5,332.8z"/>
<path fill="#AAC3C8" d="M-306.5,294.8v-7c0-4.4-3.6-8-8-8h-37c-4.4,0-8,3.6-8,8v7H-306.5z"/>
<path fill="#FFFFFF" d="M-314.6,292.9h-6.4c-1.1,0-2-0.9-2-2v-6.4c0-1.1,0.9-2,2-2h6.4c1.1,0,2,0.9,2,2v6.4
	C-312.6,292-313.5,292.9-314.6,292.9z"/>
<circle fill="#BAD7DD" cx="-333" cy="305.4" r="13.7"/>
<circle fill="#FFFFFF" cx="-333" cy="305.4" r="10.6"/>
<path fill="#FFFFFF" d="M-352.7,279.5h2.8v15.2h-2.8V279.5z"/>
<path fill="#FFFFFF" d="M-348.2,279.5h2.8v15.2h-2.8V279.5z"/>
<path fill="#FFFFFF" d="M-343.5,279.5h2.8v15.2h-2.8V279.5z"/>
<circle fill="#BAD7DD" cx="-333" cy="305.4" r="8.6"/>
</svg>
