<svg xmlns="http://www.w3.org/2000/svg" width="62" height="60" viewBox="-364 277 62 60" enable-background="new -364 277 62 60"><path fill="#fff" stroke="#AAC3C8" stroke-miterlimit="10" d="M-314.5 332.8h-37c-4.4 0-8-3.6-8-8v-37c0-4.4 3.6-8 8-8h37c4.4 0 8 3.6 8 8v37c0 4.4-3.6 8-8 8z"/><path fill="#AAC3C8" d="M-306.5 294.8v-7c0-4.4-3.6-8-8-8h-37c-4.4 0-8 3.6-8 8v7h53z"/><path fill="#fff" d="M-314.6 292.9h-6.4c-1.1 0-2-.9-2-2v-6.4c0-1.1.9-2 2-2h6.4c1.1 0 2 .9 2 2v6.4c0 1.1-.9 2-2 2z"/><circle fill="#BAD7DD" cx="-333" cy="305.4" r="13.7"/><circle fill="#fff" cx="-333" cy="305.4" r="10.6"/><path fill="#fff" d="M-352.7 279.5h2.8v15.2h-2.8v-15.2zM-348.2 279.5h2.8v15.2h-2.8v-15.2zM-343.5 279.5h2.8v15.2h-2.8v-15.2z"/><circle fill="#BAD7DD" cx="-333" cy="305.4" r="8.6"/></svg>