<?xml version="1.0" encoding="utf-8"?>
<!-- Generator: Adobe Illustrator 18.1.1, SVG Export Plug-In . SVG Version: 6.00 Build 0)  -->
<svg version="1.1" id="Layer_1" xmlns="http://www.w3.org/2000/svg" xmlns:xlink="http://www.w3.org/1999/xlink" x="0px" y="0px"
	 width="226.5px" height="70.5px" viewBox="0 0 226.5 70.5" style="enable-background:new 0 0 226.5 70.5;" xml:space="preserve">
<style type="text/css">
	.st0{fill:#5EA7DB;}
	.st1{fill:#FFFFFF;}
	.st2{fill:#FEFFFF;}
	.st3{fill:#FDFEFF;}
	.st4{fill:#2D2E73;}
	.st5{fill:#F9F9FC;}
	.st6{fill:#EDE5DC;}
	.st7{fill:#653E35;}
	.st8{fill:#AFA19D;}
	.st9{fill:#EF3C58;}
	.st10{fill:#FBC934;}
	.st11{fill:#77C695;}
	.st12{fill:#5B88C6;}
</style>
<g>
	<path class="st0" d="M64.4,64.3h-37c-4.4,0-8-3.6-8-8v-37c0-4.4,3.6-8,8-8h37c4.4,0,8,3.6,8,8v37C72.4,60.7,68.8,64.3,64.4,64.3z"
		/>
	<g>
		<path class="st1" d="M52.3,22.9c0.8,0,1.7,0,2.5,0c1.2,0.4,2.5,0.6,3.4,1.5c1.1,1,2.1,0.9,3.3,0.4c0.7-0.3,1.4-0.6,2.1-0.9
			c0.2-0.1,0.4-0.3,0.8-0.2c-0.5,1.5-1.5,2.6-2.6,3.7c-0.1,0-0.1,0.1-0.2,0.1c-0.1,0-0.1,0.1-0.2,0.1c0,0,0,0,0,0.1c0,0,0,0,0-0.1
			c0.1,0,0.1,0,0.2,0c0.1,0,0.3,0,0.4-0.1c1.2-0.1,2.3-0.6,3.5-0.9c-0.8,1.3-1.8,2.3-2.9,3.2c-0.6,0.5-0.9,1-0.9,1.8
			c-0.1,1.8-0.2,3.6-0.7,5.4C58.4,45.9,53,51.8,44,53.9c-1.1,0.3-2.2,0.4-3.3,0.6c-1.3,0-2.6,0-3.9,0c-0.1-0.2-0.3-0.1-0.5-0.2
			c-3-0.3-5.8-1.3-8.5-2.7c-0.3-0.2-0.7-0.3-1-0.7c4.2,0.3,8-0.7,11.5-3.3c-3.6-0.5-6-2.1-7.3-5.5c1.1-0.1,2.2,0.1,3.4-0.2
			c-4-1.3-6.7-4.9-6.1-7.8c1,0.4,2,0.8,3.3,0.9c-0.3-0.3-0.5-0.4-0.6-0.6c-2.5-2.4-3.3-5.2-2.3-8.5c0.5-1.6,0.6-1.6,1.7-0.4
			c3.8,4,8.5,6.3,14,7.1c1.4,0.2,1.3,0.2,1.3-1.2c-0.1-3.2,1.1-5.7,3.9-7.4C50.4,23.5,51.4,23.3,52.3,22.9z"/>
		<path class="st2" d="M65.5,24.1c-0.2,0-0.3,0.1-0.5,0.1c0-0.1,0-0.1,0-0.2c0.1,0,0.2-0.1,0.3-0.1C65.4,23.9,65.4,24,65.5,24.1z"/>
		<path class="st3" d="M65,24c0,0.1,0,0.1,0,0.2c-0.1,0-0.1,0-0.2,0l0,0C64.9,24.1,65,24,65,24z"/>
		<path class="st3" d="M64.8,24.1C64.8,24.2,64.8,24.2,64.8,24.1C64.8,24.2,64.9,24.2,64.8,24.1C64.9,24.2,64.8,24.1,64.8,24.1z"/>
	</g>
</g>
<g>
	<path class="st4" d="M131.9,63.6h-37c-4.4,0-8-3.6-8-8v-37c0-4.4,3.6-8,8-8h37c4.4,0,8,3.6,8,8v37C139.9,60,136.3,63.6,131.9,63.6z
		"/>
	<g>
		<path class="st5" d="M116.1,52.1c0-3.7,0-7.4,0-11.1c0-0.7-0.2-0.9-0.9-0.9c-1.1,0.1-2.2,0-3.2,0c-0.6,0-0.8-0.2-0.8-0.8
			c0-1,0-2,0-3c0-0.9,0.4-1.2,1.2-1.2c0.8,0,1.7,0,2.5,0c0.9,0.1,1.2-0.4,1.2-1.2c0-1.5-0.1-3,0.4-4.5c1-3.5,3.3-5.2,7.1-5.4
			c1.8-0.1,3.5,0,5.3,0c0.8,0,1,0.4,1,1.1c0,1.3,0,2.6,0,3.9c0,0.7-0.3,1.1-1.1,1c-0.8,0-1.7,0-2.5,0c-0.8,0-1.3,0.3-1.7,1
			c-0.6,1.2-0.3,2.5-0.3,3.7c0,0.5,0.6,0.4,0.9,0.4c1.3,0,2.5,0,3.8,0c0.6,0,0.8,0.2,0.8,0.8c0,1.2,0,2.3,0,3.5
			c0,0.6-0.2,0.7-0.7,0.7c-1.2,0-2.3,0.1-3.5,0c-1.1-0.1-1.4,0.4-1.4,1.5c0,7.1,0,14.3,0,21.4c0,0.9-0.2,1.3-1.2,1.2
			c-2-0.1-4-0.1-6,0c-0.8,0-1.1-0.2-1.1-1.1C116.1,59.5,116.1,55.8,116.1,52.1z"/>
	</g>
</g>
<g>
	<path class="st6" d="M199.4,64.3h-37c-4.4,0-8-3.6-8-8v-37c0-4.4,3.6-8,8-8h37c4.4,0,8,3.6,8,8v37
		C207.4,60.7,203.8,64.3,199.4,64.3z"/>
	<path class="st7" d="M207.4,26.3v-7c0-4.4-3.6-8-8-8h-37c-4.4,0-8,3.6-8,8v7H207.4z"/>
	<path d="M199.3,24.4h-6.4c-1.1,0-2-0.9-2-2V16c0-1.1,0.9-2,2-2h6.4c1.1,0,2,0.9,2,2v6.4C201.3,23.5,200.4,24.4,199.3,24.4z"/>
	<circle class="st8" cx="180.9" cy="36.9" r="13.7"/>
	<circle cx="180.9" cy="36.9" r="10.6"/>
	<rect x="161.2" y="11" class="st9" width="2.8" height="15.2"/>
	<rect x="163.9" y="11" class="st10" width="2.8" height="15.2"/>
	<rect x="166.7" y="11" class="st11" width="2.8" height="15.2"/>
	<rect x="169.4" y="11" class="st12" width="2.8" height="15.2"/>
</g>
<g>
</g>
<g>
</g>
<g>
</g>
<g>
</g>
<g>
</g>
<g>
</g>
</svg>
