<svg xmlns="http://www.w3.org/2000/svg" width="59.3" height="63.1" viewBox="-365 275.9 59.3 63.1" enable-background="new -365 275.9 59.3 63.1"><path fill="#fff" stroke="#AAC3C8" stroke-miterlimit="10" d="M-316.9 334h-37c-4.4 0-8-3.6-8-8v-37c0-4.4 3.6-8 8-8h37c4.4 0 8 3.6 8 8v37c0 4.4-3.6 8-8 8z"/><path fill="#BAD7DD" d="M-329 292.5h2.5c1.2.4 2.5.6 3.4 1.5 1.1 1 2.1.9 3.3.4l2.1-.9c.2-.1.4-.3.8-.2-.5 1.5-1.5 2.6-2.6 3.7l-.2.1-.2.1v.1-.1h.2c.1 0 .3 0 .4-.1 1.2-.1 2.3-.6 3.5-.9-.8 1.3-1.8 2.3-2.9 3.2-.6.5-.9 1-.9 1.8-.1 1.8-.2 3.6-.7 5.4-2.5 8.8-7.9 14.6-16.9 16.7-1.1.3-2.2.4-3.3.6h-3.9c-.1-.2-.3-.1-.5-.2-3-.3-5.8-1.3-8.5-2.7-.3-.2-.7-.3-1-.7 4.2.3 8-.7 11.5-3.3-3.6-.5-6-2.1-7.3-5.5 1.1-.1 2.2.1 3.4-.2-4-1.3-6.7-4.9-6.1-7.8 1 .4 2 .8 3.3.9-.3-.3-.5-.4-.6-.6-2.5-2.4-3.3-5.2-2.3-8.5.5-1.6.6-1.6 1.7-.4 3.8 4 8.5 6.3 14 7.1 1.4.2 1.3.2 1.3-1.2-.1-3.2 1.1-5.7 3.9-7.4.7-.2 1.7-.4 2.6-.9z"/><path fill="#FEFFFF" d="M-315.8 293.8l-.5.1v-.2l.3-.1.2.2z"/><path fill="#FDFEFF" d="M-316.3 293.7v.2h-.2l.2-.2z"/></svg>