<svg xmlns="http://www.w3.org/2000/svg" width="59.3" height="63.1" viewBox="0 0 59.3 63.1"><style type="text/css">.st0{fill:#5EA7DB;} .st1{fill:#FFFFFF;} .st2{fill:#FEFFFF;} .st3{fill:#FDFEFF;} .st4{fill:#2D2E73;} .st5{fill:#F9F9FC;} .st6{fill:#EDE5DC;} .st7{fill:#653E35;} .st8{fill:#AFA19D;} .st9{fill:#EF3C58;} .st10{fill:#FBC934;} .st11{fill:#77C695;} .st12{fill:#5B88C6;}</style><path class="st0" d="M48.7 56.9h-37c-4.4 0-8-3.6-8-8v-37c0-4.4 3.6-8 8-8h37c4.4 0 8 3.6 8 8v37c0 4.4-3.6 8-8 8z"/><path class="st1" d="M36.6 15.5h2.5c1.2.4 2.5.6 3.4 1.5 1.1 1 2.1.9 3.3.4l2.1-.9c.2-.1.4-.3.8-.2-.5 1.5-1.5 2.6-2.6 3.7l-.2.1-.2.1v.1-.1h.2c.1 0 .3 0 .4-.1 1.2-.1 2.3-.6 3.5-.9-.8 1.3-1.8 2.3-2.9 3.2-.6.5-.9 1-.9 1.8-.1 1.8-.2 3.6-.7 5.4-2.5 8.8-7.9 14.6-16.9 16.7-1.1.3-2.2.4-3.3.6h-3.9c-.1-.2-.3-.1-.5-.2-3-.3-5.8-1.3-8.5-2.7-.3-.2-.7-.3-1-.7 4.2.3 8-.7 11.5-3.3-3.6-.5-6-2.1-7.3-5.5 1.1-.1 2.2.1 3.4-.2-4-1.3-6.7-4.9-6.1-7.8 1 .4 2 .8 3.3.9-.3-.3-.5-.4-.6-.6-2.5-2.4-3.3-5.2-2.3-8.5.5-1.6.6-1.6 1.7-.4 3.8 4 8.5 6.3 14 7.1 1.4.2 1.3.2 1.3-1.2-.1-3.2 1.1-5.7 3.9-7.4.7-.3 1.7-.5 2.6-.9z"/><path class="st2" d="M49.8 16.7l-.5.1v-.2l.3-.1.2.2z"/><path class="st3" d="M49.3 16.6v.2h-.2l.2-.2zM49.1 16.7z"/><path class="st4" d="M116.2 56.2h-37c-4.4 0-8-3.6-8-8v-37c0-4.4 3.6-8 8-8h37c4.4 0 8 3.6 8 8v37c0 4.4-3.6 8-8 8z"/><path class="st5" d="M100.4 44.7v-11.1c0-.7-.2-.9-.9-.9-1.1.1-2.2 0-3.2 0-.6 0-.8-.2-.8-.8v-3c0-.9.4-1.2 1.2-1.2h2.5c.9.1 1.2-.4 1.2-1.2 0-1.5-.1-3 .4-4.5 1-3.5 3.3-5.2 7.1-5.4 1.8-.1 3.5 0 5.3 0 .8 0 1 .4 1 1.1v3.9c0 .7-.3 1.1-1.1 1h-2.5c-.8 0-1.3.3-1.7 1-.6 1.2-.3 2.5-.3 3.7 0 .5.6.4.9.4h3.8c.6 0 .8.2.8.8v3.5c0 .6-.2.7-.7.7-1.2 0-2.3.1-3.5 0-1.1-.1-1.4.4-1.4 1.5v21.4c0 .9-.2 1.3-1.2 1.2-2-.1-4-.1-6 0-.8 0-1.1-.2-1.1-1.1.2-3.6.2-7.3.2-11z"/><path class="st6" d="M183.7 56.9h-37c-4.4 0-8-3.6-8-8v-37c0-4.4 3.6-8 8-8h37c4.4 0 8 3.6 8 8v37c0 4.4-3.6 8-8 8z"/><path class="st7" d="M191.7 18.9v-7c0-4.4-3.6-8-8-8h-37c-4.4 0-8 3.6-8 8v7h53z"/><path d="M183.6 17h-6.4c-1.1 0-2-.9-2-2v-6.4c0-1.1.9-2 2-2h6.4c1.1 0 2 .9 2 2v6.4c0 1.1-.9 2-2 2z"/><circle class="st8" cx="165.2" cy="29.5" r="13.7"/><circle cx="165.2" cy="29.5" r="10.6"/><path class="st9" d="M145.5 3.6h2.8v15.2h-2.8z"/><path class="st10" d="M148.2 3.6h2.8v15.2h-2.8z"/><path class="st11" d="M151 3.6h2.8v15.2h-2.8z"/><path class="st12" d="M153.7 3.6h2.8v15.2h-2.8z"/></svg>