<?xml version="1.0" encoding="utf-8"?>
<!-- Generator: Adobe Illustrator 18.1.1, SVG Export Plug-In . SVG Version: 6.00 Build 0)  -->
<svg version="1.1" id="Layer_1" xmlns="http://www.w3.org/2000/svg" xmlns:xlink="http://www.w3.org/1999/xlink" x="0px" y="0px"
	 width="59.3px" height="63.1px" viewBox="-365 275.9 59.3 63.1" enable-background="new -365 275.9 59.3 63.1"
	 xml:space="preserve">
<path fill="#FFFFFF" stroke="#AAC3C8" stroke-miterlimit="10" d="M-316.9,334h-37c-4.4,0-8-3.6-8-8v-37c0-4.4,3.6-8,8-8h37
	c4.4,0,8,3.6,8,8v37C-308.9,330.4-312.5,334-316.9,334z"/>
<path fill="#BAD7DD" d="M-329,292.5h2.5c1.2,0.4,2.5,0.6,3.4,1.5c1.1,1,2.1,0.9,3.3,0.4l2.1-0.9c0.2-0.1,0.4-0.3,0.8-0.2
	c-0.5,1.5-1.5,2.6-2.6,3.7l-0.2,0.1l-0.2,0.1v0.1v-0.1h0.2c0.1,0,0.3,0,0.4-0.1c1.2-0.1,2.3-0.6,3.5-0.9c-0.8,1.3-1.8,2.3-2.9,3.2
	c-0.6,0.5-0.9,1-0.9,1.8c-0.1,1.8-0.2,3.6-0.7,5.4c-2.5,8.8-7.9,14.6-16.9,16.7c-1.1,0.3-2.2,0.4-3.3,0.6h-3.9
	c-0.1-0.2-0.3-0.1-0.5-0.2c-3-0.3-5.8-1.3-8.5-2.7c-0.3-0.2-0.7-0.3-1-0.7c4.2,0.3,8-0.7,11.5-3.3c-3.6-0.5-6-2.1-7.3-5.5
	c1.1-0.1,2.2,0.1,3.4-0.2c-4-1.3-6.7-4.9-6.1-7.8c1,0.4,2,0.8,3.3,0.9c-0.3-0.3-0.5-0.4-0.6-0.6c-2.5-2.4-3.3-5.2-2.3-8.5
	c0.5-1.6,0.6-1.6,1.7-0.4c3.8,4,8.5,6.3,14,7.1c1.4,0.2,1.3,0.2,1.3-1.2c-0.1-3.2,1.1-5.7,3.9-7.4C-330.9,293.2-329.9,293-329,292.5
	z"/>
<path fill="#FEFFFF" d="M-315.8,293.8l-0.5,0.1v-0.2l0.3-0.1L-315.8,293.8z"/>
<path fill="#FDFEFF" d="M-316.3,293.7v0.2h-0.2L-316.3,293.7z"/>
</svg>
