<?xml version="1.0" encoding="utf-8"?>
<!-- Generator: Adobe Illustrator 18.1.1, SVG Export Plug-In . SVG Version: 6.00 Build 0)  -->
<svg version="1.1" id="Layer_1" xmlns="http://www.w3.org/2000/svg" xmlns:xlink="http://www.w3.org/1999/xlink" x="0px" y="0px"
	 width="59.3px" height="63.1px" viewBox="0 0 59.3 63.1" style="enable-background:new 0 0 59.3 63.1;" xml:space="preserve">
<style type="text/css">
	.st0{fill:#5EA7DB;}
	.st1{fill:#FFFFFF;}
	.st2{fill:#FEFFFF;}
	.st3{fill:#FDFEFF;}
	.st4{fill:#2D2E73;}
	.st5{fill:#F9F9FC;}
	.st6{fill:#EDE5DC;}
	.st7{fill:#653E35;}
	.st8{fill:#AFA19D;}
	.st9{fill:#EF3C58;}
	.st10{fill:#FBC934;}
	.st11{fill:#77C695;}
	.st12{fill:#5B88C6;}
</style>
<g>
	<path class="st0" d="M48.7,56.9h-37c-4.4,0-8-3.6-8-8v-37c0-4.4,3.6-8,8-8h37c4.4,0,8,3.6,8,8v37C56.7,53.3,53.1,56.9,48.7,56.9z"
		/>
	<g>
		<path class="st1" d="M36.6,15.5c0.8,0,1.7,0,2.5,0c1.2,0.4,2.5,0.6,3.4,1.5c1.1,1,2.1,0.9,3.3,0.4c0.7-0.3,1.4-0.6,2.1-0.9
			c0.2-0.1,0.4-0.3,0.8-0.2c-0.5,1.5-1.5,2.6-2.6,3.7c-0.1,0-0.1,0.1-0.2,0.1c-0.1,0-0.1,0.1-0.2,0.1c0,0,0,0,0,0.1c0,0,0,0,0-0.1
			c0.1,0,0.1,0,0.2,0c0.1,0,0.3,0,0.4-0.1c1.2-0.1,2.3-0.6,3.5-0.9c-0.8,1.3-1.8,2.3-2.9,3.2c-0.6,0.5-0.9,1-0.9,1.8
			c-0.1,1.8-0.2,3.6-0.7,5.4c-2.5,8.8-7.9,14.6-16.9,16.7c-1.1,0.3-2.2,0.4-3.3,0.6c-1.3,0-2.6,0-3.9,0c-0.1-0.2-0.3-0.1-0.5-0.2
			c-3-0.3-5.8-1.3-8.5-2.7c-0.3-0.2-0.7-0.3-1-0.7c4.2,0.3,8-0.7,11.5-3.3c-3.6-0.5-6-2.1-7.3-5.5c1.1-0.1,2.2,0.1,3.4-0.2
			c-4-1.3-6.7-4.9-6.1-7.8c1,0.4,2,0.8,3.3,0.9c-0.3-0.3-0.5-0.4-0.6-0.6c-2.5-2.4-3.3-5.2-2.3-8.5c0.5-1.6,0.6-1.6,1.7-0.4
			c3.8,4,8.5,6.3,14,7.1c1.4,0.2,1.3,0.2,1.3-1.2c-0.1-3.2,1.1-5.7,3.9-7.4C34.7,16.1,35.7,15.9,36.6,15.5z"/>
		<path class="st2" d="M49.8,16.7c-0.2,0-0.3,0.1-0.5,0.1c0-0.1,0-0.1,0-0.2c0.1,0,0.2-0.1,0.3-0.1C49.6,16.5,49.7,16.6,49.8,16.7z"
			/>
		<path class="st3" d="M49.3,16.6c0,0.1,0,0.1,0,0.2c-0.1,0-0.1,0-0.2,0l0,0C49.2,16.7,49.3,16.6,49.3,16.6z"/>
		<path class="st3" d="M49.1,16.7C49.1,16.8,49.1,16.8,49.1,16.7C49.1,16.8,49.1,16.8,49.1,16.7C49.1,16.8,49.1,16.7,49.1,16.7z"/>
	</g>
</g>
<g>
	<path class="st4" d="M116.2,56.2h-37c-4.4,0-8-3.6-8-8v-37c0-4.4,3.6-8,8-8h37c4.4,0,8,3.6,8,8v37
		C124.2,52.6,120.6,56.2,116.2,56.2z"/>
	<g>
		<path class="st5" d="M100.4,44.7c0-3.7,0-7.4,0-11.1c0-0.7-0.2-0.9-0.9-0.9c-1.1,0.1-2.2,0-3.2,0c-0.6,0-0.8-0.2-0.8-0.8
			c0-1,0-2,0-3c0-0.9,0.4-1.2,1.2-1.2c0.8,0,1.7,0,2.5,0c0.9,0.1,1.2-0.4,1.2-1.2c0-1.5-0.1-3,0.4-4.5c1-3.5,3.3-5.2,7.1-5.4
			c1.8-0.1,3.5,0,5.3,0c0.8,0,1,0.4,1,1.1c0,1.3,0,2.6,0,3.9c0,0.7-0.3,1.1-1.1,1c-0.8,0-1.7,0-2.5,0c-0.8,0-1.3,0.3-1.7,1
			c-0.6,1.2-0.3,2.5-0.3,3.7c0,0.5,0.6,0.4,0.9,0.4c1.3,0,2.5,0,3.8,0c0.6,0,0.8,0.2,0.8,0.8c0,1.2,0,2.3,0,3.5
			c0,0.6-0.2,0.7-0.7,0.7c-1.2,0-2.3,0.1-3.5,0c-1.1-0.1-1.4,0.4-1.4,1.5c0,7.1,0,14.3,0,21.4c0,0.9-0.2,1.3-1.2,1.2
			c-2-0.1-4-0.1-6,0c-0.8,0-1.1-0.2-1.1-1.1C100.4,52.1,100.4,48.4,100.4,44.7z"/>
	</g>
</g>
<g>
	<path class="st6" d="M183.7,56.9h-37c-4.4,0-8-3.6-8-8v-37c0-4.4,3.6-8,8-8h37c4.4,0,8,3.6,8,8v37
		C191.7,53.3,188.1,56.9,183.7,56.9z"/>
	<path class="st7" d="M191.7,18.9v-7c0-4.4-3.6-8-8-8h-37c-4.4,0-8,3.6-8,8v7H191.7z"/>
	<path d="M183.6,17h-6.4c-1.1,0-2-0.9-2-2V8.6c0-1.1,0.9-2,2-2h6.4c1.1,0,2,0.9,2,2V15C185.6,16.1,184.7,17,183.6,17z"/>
	<circle class="st8" cx="165.2" cy="29.5" r="13.7"/>
	<circle cx="165.2" cy="29.5" r="10.6"/>
	<rect x="145.5" y="3.6" class="st9" width="2.8" height="15.2"/>
	<rect x="148.2" y="3.6" class="st10" width="2.8" height="15.2"/>
	<rect x="151" y="3.6" class="st11" width="2.8" height="15.2"/>
	<rect x="153.7" y="3.6" class="st12" width="2.8" height="15.2"/>
</g>
<g>
</g>
<g>
</g>
<g>
</g>
<g>
</g>
<g>
</g>
<g>
</g>
</svg>
